<mxfile host="app.diagrams.net" modified="2023-08-29T07:59:47.937Z" agent="Mozilla/5.0 (Windows NT 10.0; Win64; x64) AppleWebKit/537.36 (KHTML, like Gecko) Chrome/110.0.0.0 Safari/537.36" version="21.6.8" etag="lvDx3BR0ScH0irMEANbW" type="github">
  <diagram name="Page-1" id="K-1qhy6xgFImKmoyZ_5X">
    <mxGraphModel>
      <root>
        <mxCell id="0" />
        <mxCell id="1" parent="0" />
      </root>
    </mxGraphModel>
  </diagram>
</mxfile>
